<?xml version="1.0" encoding="UTF-8" standalone="no"?>
<!DOCTYPE svg PUBLIC "-//W3C//DTD SVG 1.1//EN"
 "http://www.w3.org/Graphics/SVG/1.1/DTD/svg11.dtd">
<!-- Generated by graphviz version 2.42.3 (20191010.1750)
 -->
<!-- Title: snakemake_dag Pages: 1 -->
<svg width="372pt" height="476pt"
 viewBox="0.00 0.00 372.00 476.00" xmlns="http://www.w3.org/2000/svg" xmlns:xlink="http://www.w3.org/1999/xlink">
<g id="graph0" class="graph" transform="scale(1 1) rotate(0) translate(4 472)">
<title>snakemake_dag</title>
<polygon fill="white" stroke="transparent" points="-4,4 -4,-472 368,-472 368,4 -4,4"/>
<!-- 0 -->
<g id="node1" class="node">
<title>0</title>
<path fill="none" stroke="#88d856" stroke-width="2" stroke-dasharray="5,2" d="M206,-36C206,-36 176,-36 176,-36 170,-36 164,-30 164,-24 164,-24 164,-12 164,-12 164,-6 170,0 176,0 176,0 206,0 206,0 212,0 218,-6 218,-12 218,-12 218,-24 218,-24 218,-30 212,-36 206,-36"/>
<text text-anchor="middle" x="191" y="-15.5" font-family="sans" font-size="10.00">all</text>
</g>
<!-- 1 -->
<g id="node2" class="node">
<title>1</title>
<path fill="none" stroke="#56d88a" stroke-width="2" stroke-dasharray="5,2" d="M191.5,-252C191.5,-252 102.5,-252 102.5,-252 96.5,-252 90.5,-246 90.5,-240 90.5,-240 90.5,-228 90.5,-228 90.5,-222 96.5,-216 102.5,-216 102.5,-216 191.5,-216 191.5,-216 197.5,-216 203.5,-222 203.5,-228 203.5,-228 203.5,-240 203.5,-240 203.5,-246 197.5,-252 191.5,-252"/>
<text text-anchor="middle" x="147" y="-231.5" font-family="sans" font-size="10.00">figure_supplements</text>
</g>
<!-- 1&#45;&gt;0 -->
<g id="edge1" class="edge">
<title>1&#45;&gt;0</title>
<path fill="none" stroke="grey" stroke-width="2" d="M139.16,-215.6C126.6,-185 105.55,-120.23 128,-72 133.96,-59.2 144.71,-48.38 155.65,-39.93"/>
<polygon fill="grey" stroke="grey" stroke-width="2" points="157.92,-42.61 163.99,-33.93 153.83,-36.93 157.92,-42.61"/>
</g>
<!-- 6 -->
<g id="node7" class="node">
<title>6</title>
<path fill="none" stroke="#568ad8" stroke-width="2" stroke-dasharray="5,2" d="M217,-180C217,-180 187,-180 187,-180 181,-180 175,-174 175,-168 175,-168 175,-156 175,-156 175,-150 181,-144 187,-144 187,-144 217,-144 217,-144 223,-144 229,-150 229,-156 229,-156 229,-168 229,-168 229,-174 223,-180 217,-180"/>
<text text-anchor="middle" x="202" y="-159.5" font-family="sans" font-size="10.00">main</text>
</g>
<!-- 1&#45;&gt;6 -->
<g id="edge13" class="edge">
<title>1&#45;&gt;6</title>
<path fill="none" stroke="grey" stroke-width="2" d="M160.6,-215.7C167.12,-207.39 175.07,-197.28 182.25,-188.14"/>
<polygon fill="grey" stroke="grey" stroke-width="2" points="185.13,-190.13 188.56,-180.1 179.63,-185.81 185.13,-190.13"/>
</g>
<!-- 8 -->
<g id="node9" class="node">
<title>8</title>
<path fill="none" stroke="#d88d56" stroke-width="2" stroke-dasharray="5,2" d="M179,-108C179,-108 149,-108 149,-108 143,-108 137,-102 137,-96 137,-96 137,-84 137,-84 137,-78 143,-72 149,-72 149,-72 179,-72 179,-72 185,-72 191,-78 191,-84 191,-84 191,-96 191,-96 191,-102 185,-108 179,-108"/>
<text text-anchor="middle" x="164" y="-87.5" font-family="sans" font-size="10.00">staple</text>
</g>
<!-- 1&#45;&gt;8 -->
<g id="edge18" class="edge">
<title>1&#45;&gt;8</title>
<path fill="none" stroke="grey" stroke-width="2" d="M149.05,-215.87C151.95,-191.67 157.27,-147.21 160.72,-118.39"/>
<polygon fill="grey" stroke="grey" stroke-width="2" points="164.23,-118.53 161.94,-108.19 157.28,-117.7 164.23,-118.53"/>
</g>
<!-- 2 -->
<g id="node3" class="node">
<title>2</title>
<path fill="none" stroke="#56c1d8" stroke-width="2" stroke-dasharray="5,2" d="M293.5,-324C293.5,-324 204.5,-324 204.5,-324 198.5,-324 192.5,-318 192.5,-312 192.5,-312 192.5,-300 192.5,-300 192.5,-294 198.5,-288 204.5,-288 204.5,-288 293.5,-288 293.5,-288 299.5,-288 305.5,-294 305.5,-300 305.5,-300 305.5,-312 305.5,-312 305.5,-318 299.5,-324 293.5,-324"/>
<text text-anchor="middle" x="249" y="-303.5" font-family="sans" font-size="10.00">preprocess_pvalues</text>
</g>
<!-- 2&#45;&gt;1 -->
<g id="edge7" class="edge">
<title>2&#45;&gt;1</title>
<path fill="none" stroke="grey" stroke-width="2" d="M224.05,-287.88C210.96,-278.89 194.74,-267.76 180.56,-258.03"/>
<polygon fill="grey" stroke="grey" stroke-width="2" points="182.27,-254.96 172.05,-252.19 178.31,-260.73 182.27,-254.96"/>
</g>
<!-- 7 -->
<g id="node8" class="node">
<title>7</title>
<path fill="none" stroke="#d85656" stroke-width="2" stroke-dasharray="5,2" d="M264,-252C264,-252 234,-252 234,-252 228,-252 222,-246 222,-240 222,-240 222,-228 222,-228 222,-222 228,-216 234,-216 234,-216 264,-216 264,-216 270,-216 276,-222 276,-228 276,-228 276,-240 276,-240 276,-246 270,-252 264,-252"/>
<text text-anchor="middle" x="249" y="-231.5" font-family="sans" font-size="10.00">figures</text>
</g>
<!-- 2&#45;&gt;7 -->
<g id="edge14" class="edge">
<title>2&#45;&gt;7</title>
<path fill="none" stroke="grey" stroke-width="2" d="M249,-287.7C249,-279.98 249,-270.71 249,-262.11"/>
<polygon fill="grey" stroke="grey" stroke-width="2" points="252.5,-262.1 249,-252.1 245.5,-262.1 252.5,-262.1"/>
</g>
<!-- 9 -->
<g id="node10" class="node">
<title>9</title>
<path fill="none" stroke="#59d856" stroke-width="2" stroke-dasharray="5,2" d="M352,-252C352,-252 306,-252 306,-252 300,-252 294,-246 294,-240 294,-240 294,-228 294,-228 294,-222 300,-216 306,-216 306,-216 352,-216 352,-216 358,-216 364,-222 364,-228 364,-228 364,-240 364,-240 364,-246 358,-252 352,-252"/>
<text text-anchor="middle" x="329" y="-231.5" font-family="sans" font-size="10.00">suppl_data</text>
</g>
<!-- 2&#45;&gt;9 -->
<g id="edge20" class="edge">
<title>2&#45;&gt;9</title>
<path fill="none" stroke="grey" stroke-width="2" d="M268.78,-287.7C278.75,-278.97 291.01,-268.24 301.86,-258.75"/>
<polygon fill="grey" stroke="grey" stroke-width="2" points="304.23,-261.32 309.45,-252.1 299.62,-256.06 304.23,-261.32"/>
</g>
<!-- 3 -->
<g id="node4" class="node">
<title>3</title>
<path fill="none" stroke="#d8bc56" stroke-width="2" stroke-dasharray="5,2" d="M306,-396C306,-396 276,-396 276,-396 270,-396 264,-390 264,-384 264,-384 264,-372 264,-372 264,-366 270,-360 276,-360 276,-360 306,-360 306,-360 312,-360 318,-366 318,-372 318,-372 318,-384 318,-384 318,-390 312,-396 306,-396"/>
<text text-anchor="middle" x="291" y="-375.5" font-family="sans" font-size="10.00">unpack</text>
</g>
<!-- 3&#45;&gt;2 -->
<g id="edge9" class="edge">
<title>3&#45;&gt;2</title>
<path fill="none" stroke="grey" stroke-width="2" d="M280.62,-359.7C275.74,-351.56 269.81,-341.69 264.42,-332.7"/>
<polygon fill="grey" stroke="grey" stroke-width="2" points="267.41,-330.88 259.26,-324.1 261.41,-334.48 267.41,-330.88"/>
</g>
<!-- 5 -->
<g id="node6" class="node">
<title>5</title>
<path fill="none" stroke="#56d8c1" stroke-width="2" stroke-dasharray="5,2" d="M162,-324C162,-324 12,-324 12,-324 6,-324 0,-318 0,-312 0,-312 0,-300 0,-300 0,-294 6,-288 12,-288 12,-288 162,-288 162,-288 168,-288 174,-294 174,-300 174,-300 174,-312 174,-312 174,-318 168,-324 162,-324"/>
<text text-anchor="middle" x="87" y="-303.5" font-family="sans" font-size="10.00">preprocess_sequence_metadata</text>
</g>
<!-- 3&#45;&gt;5 -->
<g id="edge11" class="edge">
<title>3&#45;&gt;5</title>
<path fill="none" stroke="grey" stroke-width="2" d="M263.91,-367.7C234.04,-357.45 185.05,-340.65 146.2,-327.31"/>
<polygon fill="grey" stroke="grey" stroke-width="2" points="147.15,-323.94 136.55,-324 144.88,-330.56 147.15,-323.94"/>
</g>
<!-- 3&#45;&gt;7 -->
<g id="edge16" class="edge">
<title>3&#45;&gt;7</title>
<path fill="none" stroke="grey" stroke-width="2" d="M302.13,-359.94C312.63,-341.52 325.23,-311.64 314,-288 307.67,-274.66 296.15,-263.58 284.56,-255.05"/>
<polygon fill="grey" stroke="grey" stroke-width="2" points="286.4,-252.07 276.17,-249.3 282.44,-257.84 286.4,-252.07"/>
</g>
<!-- 3&#45;&gt;9 -->
<g id="edge19" class="edge">
<title>3&#45;&gt;9</title>
<path fill="none" stroke="grey" stroke-width="2" d="M317.58,-359.91C329.24,-350.81 341.69,-338.49 348,-324 356.73,-303.96 350.47,-279.58 342.88,-261.41"/>
<polygon fill="grey" stroke="grey" stroke-width="2" points="345.93,-259.67 338.61,-252.02 339.56,-262.57 345.93,-259.67"/>
</g>
<!-- 4 -->
<g id="node5" class="node">
<title>4</title>
<path fill="none" stroke="#bed856" stroke-width="2" stroke-dasharray="5,2" d="M311,-468C311,-468 271,-468 271,-468 265,-468 259,-462 259,-456 259,-456 259,-444 259,-444 259,-438 265,-432 271,-432 271,-432 311,-432 311,-432 317,-432 323,-438 323,-444 323,-444 323,-456 323,-456 323,-462 317,-468 311,-468"/>
<text text-anchor="middle" x="291" y="-447.5" font-family="sans" font-size="10.00">download</text>
</g>
<!-- 4&#45;&gt;3 -->
<g id="edge10" class="edge">
<title>4&#45;&gt;3</title>
<path fill="none" stroke="grey" stroke-width="2" d="M291,-431.7C291,-423.98 291,-414.71 291,-406.11"/>
<polygon fill="grey" stroke="grey" stroke-width="2" points="294.5,-406.1 291,-396.1 287.5,-406.1 294.5,-406.1"/>
</g>
<!-- 5&#45;&gt;0 -->
<g id="edge6" class="edge">
<title>5&#45;&gt;0</title>
<path fill="none" stroke="grey" stroke-width="2" d="M84.13,-287.97C78.15,-246.84 68.52,-140.41 115,-72 125.03,-57.24 140.65,-45.31 155.12,-36.54"/>
<polygon fill="grey" stroke="grey" stroke-width="2" points="156.99,-39.5 163.92,-31.49 153.51,-33.43 156.99,-39.5"/>
</g>
<!-- 5&#45;&gt;1 -->
<g id="edge8" class="edge">
<title>5&#45;&gt;1</title>
<path fill="none" stroke="grey" stroke-width="2" d="M101.83,-287.7C109.02,-279.3 117.8,-269.07 125.69,-259.86"/>
<polygon fill="grey" stroke="grey" stroke-width="2" points="128.49,-261.97 132.34,-252.1 123.17,-257.42 128.49,-261.97"/>
</g>
<!-- 5&#45;&gt;7 -->
<g id="edge15" class="edge">
<title>5&#45;&gt;7</title>
<path fill="none" stroke="grey" stroke-width="2" d="M127.95,-288C152.42,-277.75 184.08,-264.33 212,-252 212.2,-251.91 212.4,-251.82 212.61,-251.73"/>
<polygon fill="grey" stroke="grey" stroke-width="2" points="214.27,-254.82 221.96,-247.53 211.41,-248.43 214.27,-254.82"/>
</g>
<!-- 5&#45;&gt;9 -->
<g id="edge21" class="edge">
<title>5&#45;&gt;9</title>
<path fill="none" stroke="grey" stroke-width="2" d="M158.1,-287.93C193.61,-278.95 237.32,-267.2 283.91,-252.21"/>
<polygon fill="grey" stroke="grey" stroke-width="2" points="285.15,-255.48 293.58,-249.06 282.98,-248.83 285.15,-255.48"/>
</g>
<!-- 6&#45;&gt;0 -->
<g id="edge2" class="edge">
<title>6&#45;&gt;0</title>
<path fill="none" stroke="grey" stroke-width="2" d="M202.35,-143.89C202.55,-125.94 202.38,-96.92 200,-72 199.19,-63.51 197.81,-54.32 196.37,-46.02"/>
<polygon fill="grey" stroke="grey" stroke-width="2" points="199.8,-45.31 194.56,-36.1 192.91,-46.57 199.8,-45.31"/>
</g>
<!-- 6&#45;&gt;8 -->
<g id="edge17" class="edge">
<title>6&#45;&gt;8</title>
<path fill="none" stroke="grey" stroke-width="2" d="M192.61,-143.7C188.24,-135.64 182.94,-125.89 178.1,-116.98"/>
<polygon fill="grey" stroke="grey" stroke-width="2" points="181.13,-115.22 173.29,-108.1 174.98,-118.56 181.13,-115.22"/>
</g>
<!-- 7&#45;&gt;0 -->
<g id="edge3" class="edge">
<title>7&#45;&gt;0</title>
<path fill="none" stroke="grey" stroke-width="2" d="M247.76,-215.79C246.26,-197.76 243.25,-168.67 238,-144 231.03,-111.27 228.06,-103.21 216,-72 212.63,-63.27 208.45,-53.97 204.48,-45.64"/>
<polygon fill="grey" stroke="grey" stroke-width="2" points="207.5,-43.85 199.98,-36.39 201.21,-46.91 207.5,-43.85"/>
</g>
<!-- 7&#45;&gt;6 -->
<g id="edge12" class="edge">
<title>7&#45;&gt;6</title>
<path fill="none" stroke="grey" stroke-width="2" d="M237.38,-215.7C231.86,-207.47 225.15,-197.48 219.07,-188.42"/>
<polygon fill="grey" stroke="grey" stroke-width="2" points="221.96,-186.46 213.48,-180.1 216.15,-190.36 221.96,-186.46"/>
</g>
<!-- 8&#45;&gt;0 -->
<g id="edge4" class="edge">
<title>8&#45;&gt;0</title>
<path fill="none" stroke="grey" stroke-width="2" d="M170.67,-71.7C173.71,-63.81 177.38,-54.3 180.76,-45.55"/>
<polygon fill="grey" stroke="grey" stroke-width="2" points="184.07,-46.69 184.4,-36.1 177.54,-44.17 184.07,-46.69"/>
</g>
<!-- 9&#45;&gt;0 -->
<g id="edge5" class="edge">
<title>9&#45;&gt;0</title>
<path fill="none" stroke="grey" stroke-width="2" d="M320.63,-215.89C305.57,-185.73 272.2,-121.63 237,-72 230.2,-62.41 221.99,-52.53 214.4,-43.93"/>
<polygon fill="grey" stroke="grey" stroke-width="2" points="216.96,-41.53 207.67,-36.43 211.75,-46.21 216.96,-41.53"/>
</g>
</g>
</svg>
