<?xml version="1.0" encoding="UTF-8" standalone="no"?>
<!DOCTYPE svg PUBLIC "-//W3C//DTD SVG 1.1//EN"
 "http://www.w3.org/Graphics/SVG/1.1/DTD/svg11.dtd">
<!-- Generated by graphviz version 3.0.0 (0)
 -->
<!-- Title: snakemake_dag Pages: 1 -->
<svg width="594pt" height="620pt"
 viewBox="0.00 0.00 594.46 620.00" xmlns="http://www.w3.org/2000/svg" xmlns:xlink="http://www.w3.org/1999/xlink">
<g id="graph0" class="graph" transform="scale(1 1) rotate(0) translate(4 616)">
<title>snakemake_dag</title>
<polygon fill="white" stroke="transparent" points="-4,4 -4,-616 590.46,-616 590.46,4 -4,4"/>
<!-- 0 -->
<g id="node1" class="node">
<title>0</title>
<path fill="none" stroke="#56a9d8" stroke-width="2" d="M381,-36C381,-36 351,-36 351,-36 345,-36 339,-30 339,-24 339,-24 339,-12 339,-12 339,-6 345,0 351,0 351,0 381,0 381,0 387,0 393,-6 393,-12 393,-12 393,-24 393,-24 393,-30 387,-36 381,-36"/>
<text text-anchor="middle" x="366" y="-15.5" font-family="sans" font-size="10.00">all</text>
</g>
<!-- 1 -->
<g id="node2" class="node">
<title>1</title>
<path fill="none" stroke="#59d856" stroke-width="2" d="M289.5,-324C289.5,-324 198.5,-324 198.5,-324 192.5,-324 186.5,-318 186.5,-312 186.5,-312 186.5,-300 186.5,-300 186.5,-294 192.5,-288 198.5,-288 198.5,-288 289.5,-288 289.5,-288 295.5,-288 301.5,-294 301.5,-300 301.5,-300 301.5,-312 301.5,-312 301.5,-318 295.5,-324 289.5,-324"/>
<text text-anchor="middle" x="244" y="-303.5" font-family="sans" font-size="10.00">supporting_information</text>
</g>
<!-- 1&#45;&gt;0 -->
<g id="edge4" class="edge">
<title>1&#45;&gt;0</title>
<path fill="none" stroke="grey" stroke-width="2" d="M239.48,-287.98C229.61,-246.86 210.48,-140.48 256,-72 272.4,-47.33 303.67,-33.8 328.69,-26.6"/>
<polygon fill="grey" stroke="grey" stroke-width="2" points="329.85,-29.91 338.63,-23.97 328.06,-23.15 329.85,-29.91"/>
</g>
<!-- 8 -->
<g id="node9" class="node">
<title>8</title>
<path fill="none" stroke="#56d8d8" stroke-width="2" d="M345,-180C345,-180 315,-180 315,-180 309,-180 303,-174 303,-168 303,-168 303,-156 303,-156 303,-150 309,-144 315,-144 315,-144 345,-144 345,-144 351,-144 357,-150 357,-156 357,-156 357,-168 357,-168 357,-174 351,-180 345,-180"/>
<text text-anchor="middle" x="330" y="-159.5" font-family="sans" font-size="10.00">main</text>
</g>
<!-- 1&#45;&gt;8 -->
<g id="edge17" class="edge">
<title>1&#45;&gt;8</title>
<path fill="none" stroke="grey" stroke-width="2" d="M260.7,-287.8C269.79,-277.86 280.82,-264.82 289,-252 301.66,-232.15 312.61,-207.76 320.01,-189.53"/>
<polygon fill="grey" stroke="grey" stroke-width="2" points="323.31,-190.69 323.73,-180.11 316.8,-188.12 323.31,-190.69"/>
</g>
<!-- 9 -->
<g id="node10" class="node">
<title>9</title>
<path fill="none" stroke="#d88556" stroke-width="2" d="M383,-252C383,-252 353,-252 353,-252 347,-252 341,-246 341,-240 341,-240 341,-228 341,-228 341,-222 347,-216 353,-216 353,-216 383,-216 383,-216 389,-216 395,-222 395,-228 395,-228 395,-240 395,-240 395,-246 389,-252 383,-252"/>
<text text-anchor="middle" x="368" y="-231.5" font-family="sans" font-size="10.00">figures</text>
</g>
<!-- 1&#45;&gt;9 -->
<g id="edge19" class="edge">
<title>1&#45;&gt;9</title>
<path fill="none" stroke="grey" stroke-width="2" d="M274.33,-287.88C291.75,-278.04 313.73,-265.64 332.02,-255.31"/>
<polygon fill="grey" stroke="grey" stroke-width="2" points="333.95,-258.24 340.93,-250.28 330.5,-252.15 333.95,-258.24"/>
</g>
<!-- 10 -->
<g id="node11" class="node">
<title>10</title>
<path fill="none" stroke="#56d882" stroke-width="2" d="M307,-108C307,-108 277,-108 277,-108 271,-108 265,-102 265,-96 265,-96 265,-84 265,-84 265,-78 271,-72 277,-72 277,-72 307,-72 307,-72 313,-72 319,-78 319,-84 319,-84 319,-96 319,-96 319,-102 313,-108 307,-108"/>
<text text-anchor="middle" x="292" y="-87.5" font-family="sans" font-size="10.00">staple</text>
</g>
<!-- 1&#45;&gt;10 -->
<g id="edge22" class="edge">
<title>1&#45;&gt;10</title>
<path fill="none" stroke="grey" stroke-width="2" d="M247.85,-287.85C256.17,-250.75 275.89,-162.81 285.92,-118.1"/>
<polygon fill="grey" stroke="grey" stroke-width="2" points="289.36,-118.76 288.13,-108.23 282.53,-117.22 289.36,-118.76"/>
</g>
<!-- 2 -->
<g id="node3" class="node">
<title>2</title>
<path fill="none" stroke="#56d8a9" stroke-width="2" d="M328,-468C328,-468 248,-468 248,-468 242,-468 236,-462 236,-456 236,-456 236,-444 236,-444 236,-438 242,-432 248,-432 248,-432 328,-432 328,-432 334,-432 340,-438 340,-444 340,-444 340,-456 340,-456 340,-462 334,-468 328,-468"/>
<text text-anchor="middle" x="288" y="-447.5" font-family="sans" font-size="10.00">preprocess_pvalues</text>
</g>
<!-- 2&#45;&gt;1 -->
<g id="edge9" class="edge">
<title>2&#45;&gt;1</title>
<path fill="none" stroke="grey" stroke-width="2" d="M235.87,-434.93C216.41,-426.87 196.31,-414.54 185,-396 176.67,-382.34 178.48,-374.61 185,-360 190.08,-348.6 198.96,-338.63 208.31,-330.51"/>
<polygon fill="grey" stroke="grey" stroke-width="2" points="210.63,-333.14 216.2,-324.13 206.22,-327.69 210.63,-333.14"/>
</g>
<!-- 5 -->
<g id="node6" class="node">
<title>5</title>
<path fill="none" stroke="#d85656" stroke-width="2" d="M126,-396C126,-396 12,-396 12,-396 6,-396 0,-390 0,-384 0,-384 0,-372 0,-372 0,-366 6,-360 12,-360 12,-360 126,-360 126,-360 132,-360 138,-366 138,-372 138,-372 138,-384 138,-384 138,-390 132,-396 126,-396"/>
<text text-anchor="middle" x="69" y="-375.5" font-family="sans" font-size="10.00">preprocess_pvalues_filtered</text>
</g>
<!-- 2&#45;&gt;5 -->
<g id="edge14" class="edge">
<title>2&#45;&gt;5</title>
<path fill="none" stroke="grey" stroke-width="2" d="M235.82,-432.32C204.62,-422.35 164.76,-409.61 131.83,-399.08"/>
<polygon fill="grey" stroke="grey" stroke-width="2" points="132.89,-395.75 122.3,-396.04 130.76,-402.41 132.89,-395.75"/>
</g>
<!-- 2&#45;&gt;9 -->
<g id="edge20" class="edge">
<title>2&#45;&gt;9</title>
<path fill="none" stroke="grey" stroke-width="2" d="M295.34,-431.9C299.72,-421.56 305.32,-408.08 310,-396 328.21,-349 347.75,-293.59 358.87,-261.56"/>
<polygon fill="grey" stroke="grey" stroke-width="2" points="362.21,-262.61 362.17,-252.02 355.59,-260.33 362.21,-262.61"/>
</g>
<!-- 11 -->
<g id="node12" class="node">
<title>11</title>
<path fill="none" stroke="#d8ac56" stroke-width="2" d="M574,-324C574,-324 534,-324 534,-324 528,-324 522,-318 522,-312 522,-312 522,-300 522,-300 522,-294 528,-288 534,-288 534,-288 574,-288 574,-288 580,-288 586,-294 586,-300 586,-300 586,-312 586,-312 586,-318 580,-324 574,-324"/>
<text text-anchor="middle" x="554" y="-303.5" font-family="sans" font-size="10.00">suppl_data</text>
</g>
<!-- 2&#45;&gt;11 -->
<g id="edge25" class="edge">
<title>2&#45;&gt;11</title>
<path fill="none" stroke="grey" stroke-width="2" d="M340.15,-446.61C411.88,-442.1 535.29,-429.56 563,-396 577.15,-378.87 572.67,-353.09 565.97,-333.68"/>
<polygon fill="grey" stroke="grey" stroke-width="2" points="569.18,-332.28 562.35,-324.19 562.64,-334.78 569.18,-332.28"/>
</g>
<!-- 3 -->
<g id="node4" class="node">
<title>3</title>
<path fill="none" stroke="#afd856" stroke-width="2" d="M383,-540C383,-540 353,-540 353,-540 347,-540 341,-534 341,-528 341,-528 341,-516 341,-516 341,-510 347,-504 353,-504 353,-504 383,-504 383,-504 389,-504 395,-510 395,-516 395,-516 395,-528 395,-528 395,-534 389,-540 383,-540"/>
<text text-anchor="middle" x="368" y="-519.5" font-family="sans" font-size="10.00">unpack</text>
</g>
<!-- 3&#45;&gt;2 -->
<g id="edge11" class="edge">
<title>3&#45;&gt;2</title>
<path fill="none" stroke="grey" stroke-width="2" d="M348.22,-503.7C338.25,-494.97 325.99,-484.24 315.14,-474.75"/>
<polygon fill="grey" stroke="grey" stroke-width="2" points="317.38,-472.06 307.55,-468.1 312.77,-477.32 317.38,-472.06"/>
</g>
<!-- 3&#45;&gt;5 -->
<g id="edge13" class="edge">
<title>3&#45;&gt;5</title>
<path fill="none" stroke="grey" stroke-width="2" d="M340.99,-512.23C312.23,-502.57 265.63,-486.01 227,-468 183.89,-447.9 136.63,-420.53 105.14,-401.46"/>
<polygon fill="grey" stroke="grey" stroke-width="2" points="106.65,-398.29 96.29,-396.08 103.01,-404.27 106.65,-398.29"/>
</g>
<!-- 6 -->
<g id="node7" class="node">
<title>6</title>
<path fill="none" stroke="#5682d8" stroke-width="2" d="M542,-396C542,-396 408,-396 408,-396 402,-396 396,-390 396,-384 396,-384 396,-372 396,-372 396,-366 402,-360 408,-360 408,-360 542,-360 542,-360 548,-360 554,-366 554,-372 554,-372 554,-384 554,-384 554,-390 548,-396 542,-396"/>
<text text-anchor="middle" x="475" y="-375.5" font-family="sans" font-size="10.00">preprocess_sequence_metadata</text>
</g>
<!-- 3&#45;&gt;6 -->
<g id="edge15" class="edge">
<title>3&#45;&gt;6</title>
<path fill="none" stroke="grey" stroke-width="2" d="M380.91,-503.87C399.54,-479.14 434.13,-433.24 455.78,-404.51"/>
<polygon fill="grey" stroke="grey" stroke-width="2" points="458.82,-406.28 462.05,-396.19 453.23,-402.07 458.82,-406.28"/>
</g>
<!-- 3&#45;&gt;9 -->
<g id="edge18" class="edge">
<title>3&#45;&gt;9</title>
<path fill="none" stroke="grey" stroke-width="2" d="M368,-503.97C368,-456.29 368,-321.18 368,-262.63"/>
<polygon fill="grey" stroke="grey" stroke-width="2" points="371.5,-262.31 368,-252.31 364.5,-262.31 371.5,-262.31"/>
</g>
<!-- 3&#45;&gt;11 -->
<g id="edge24" class="edge">
<title>3&#45;&gt;11</title>
<path fill="none" stroke="grey" stroke-width="2" d="M395.1,-514.46C442.8,-501.31 540.52,-466.7 581,-396 592.26,-376.34 583.07,-351.5 572.46,-333.06"/>
<polygon fill="grey" stroke="grey" stroke-width="2" points="575.29,-330.98 567.05,-324.32 569.34,-334.66 575.29,-330.98"/>
</g>
<!-- 4 -->
<g id="node5" class="node">
<title>4</title>
<path fill="none" stroke="#d6d856" stroke-width="2" d="M385,-612C385,-612 351,-612 351,-612 345,-612 339,-606 339,-600 339,-600 339,-588 339,-588 339,-582 345,-576 351,-576 351,-576 385,-576 385,-576 391,-576 397,-582 397,-588 397,-588 397,-600 397,-600 397,-606 391,-612 385,-612"/>
<text text-anchor="middle" x="368" y="-591.5" font-family="sans" font-size="10.00">download</text>
</g>
<!-- 4&#45;&gt;3 -->
<g id="edge12" class="edge">
<title>4&#45;&gt;3</title>
<path fill="none" stroke="grey" stroke-width="2" d="M368,-575.7C368,-567.98 368,-558.71 368,-550.11"/>
<polygon fill="grey" stroke="grey" stroke-width="2" points="371.5,-550.1 368,-540.1 364.5,-550.1 371.5,-550.1"/>
</g>
<!-- 5&#45;&gt;1 -->
<g id="edge7" class="edge">
<title>5&#45;&gt;1</title>
<path fill="none" stroke="grey" stroke-width="2" d="M111.81,-359.88C135.95,-350.22 166.28,-338.09 191.81,-327.88"/>
<polygon fill="grey" stroke="grey" stroke-width="2" points="193.34,-331.03 201.33,-324.07 190.74,-324.53 193.34,-331.03"/>
</g>
<!-- 6&#45;&gt;0 -->
<g id="edge3" class="edge">
<title>6&#45;&gt;0</title>
<path fill="none" stroke="grey" stroke-width="2" d="M473.42,-359.97C471.09,-333.33 467,-280.19 467,-235 467,-235 467,-235 467,-161 467,-112.19 426.89,-68.51 397.22,-42.87"/>
<polygon fill="grey" stroke="grey" stroke-width="2" points="399.09,-39.87 389.17,-36.13 394.59,-45.23 399.09,-39.87"/>
</g>
<!-- 6&#45;&gt;1 -->
<g id="edge10" class="edge">
<title>6&#45;&gt;1</title>
<path fill="none" stroke="grey" stroke-width="2" d="M418.79,-359.97C386.09,-350.06 344.7,-337.51 310.4,-327.12"/>
<polygon fill="grey" stroke="grey" stroke-width="2" points="311.05,-323.66 300.47,-324.11 309.02,-330.36 311.05,-323.66"/>
</g>
<!-- 6&#45;&gt;9 -->
<g id="edge21" class="edge">
<title>6&#45;&gt;9</title>
<path fill="none" stroke="grey" stroke-width="2" d="M462.09,-359.87C443.46,-335.14 408.87,-289.24 387.22,-260.51"/>
<polygon fill="grey" stroke="grey" stroke-width="2" points="389.77,-258.07 380.95,-252.19 384.18,-262.28 389.77,-258.07"/>
</g>
<!-- 6&#45;&gt;11 -->
<g id="edge26" class="edge">
<title>6&#45;&gt;11</title>
<path fill="none" stroke="grey" stroke-width="2" d="M494.53,-359.7C504.38,-350.97 516.49,-340.24 527.2,-330.75"/>
<polygon fill="grey" stroke="grey" stroke-width="2" points="529.53,-333.36 534.7,-324.1 524.89,-328.12 529.53,-333.36"/>
</g>
<!-- 7 -->
<g id="node8" class="node">
<title>7</title>
<path fill="none" stroke="#80d856" stroke-width="2" d="M289.5,-396C289.5,-396 206.5,-396 206.5,-396 200.5,-396 194.5,-390 194.5,-384 194.5,-384 194.5,-372 194.5,-372 194.5,-366 200.5,-360 206.5,-360 206.5,-360 289.5,-360 289.5,-360 295.5,-360 301.5,-366 301.5,-372 301.5,-372 301.5,-384 301.5,-384 301.5,-390 295.5,-396 289.5,-396"/>
<text text-anchor="middle" x="248" y="-375.5" font-family="sans" font-size="10.00">download_simulation</text>
</g>
<!-- 7&#45;&gt;1 -->
<g id="edge8" class="edge">
<title>7&#45;&gt;1</title>
<path fill="none" stroke="grey" stroke-width="2" d="M247.01,-359.7C246.57,-351.98 246.04,-342.71 245.55,-334.11"/>
<polygon fill="grey" stroke="grey" stroke-width="2" points="249.04,-333.89 244.98,-324.1 242.05,-334.29 249.04,-333.89"/>
</g>
<!-- 8&#45;&gt;0 -->
<g id="edge6" class="edge">
<title>8&#45;&gt;0</title>
<path fill="none" stroke="grey" stroke-width="2" d="M334.34,-143.87C340.5,-119.56 351.85,-74.82 359.15,-46.01"/>
<polygon fill="grey" stroke="grey" stroke-width="2" points="362.58,-46.74 361.64,-36.19 355.79,-45.02 362.58,-46.74"/>
</g>
<!-- 8&#45;&gt;10 -->
<g id="edge23" class="edge">
<title>8&#45;&gt;10</title>
<path fill="none" stroke="grey" stroke-width="2" d="M320.61,-143.7C316.24,-135.64 310.94,-125.89 306.1,-116.98"/>
<polygon fill="grey" stroke="grey" stroke-width="2" points="309.13,-115.22 301.29,-108.1 302.98,-118.56 309.13,-115.22"/>
</g>
<!-- 9&#45;&gt;0 -->
<g id="edge1" class="edge">
<title>9&#45;&gt;0</title>
<path fill="none" stroke="grey" stroke-width="2" d="M367.84,-215.85C367.49,-178.83 366.67,-91.18 366.26,-46.39"/>
<polygon fill="grey" stroke="grey" stroke-width="2" points="369.75,-46.2 366.16,-36.23 362.75,-46.26 369.75,-46.2"/>
</g>
<!-- 9&#45;&gt;8 -->
<g id="edge16" class="edge">
<title>9&#45;&gt;8</title>
<path fill="none" stroke="grey" stroke-width="2" d="M358.61,-215.7C354.24,-207.64 348.94,-197.89 344.1,-188.98"/>
<polygon fill="grey" stroke="grey" stroke-width="2" points="347.13,-187.22 339.29,-180.1 340.98,-190.56 347.13,-187.22"/>
</g>
<!-- 10&#45;&gt;0 -->
<g id="edge5" class="edge">
<title>10&#45;&gt;0</title>
<path fill="none" stroke="grey" stroke-width="2" d="M310.29,-71.7C319.43,-63.05 330.64,-52.45 340.6,-43.03"/>
<polygon fill="grey" stroke="grey" stroke-width="2" points="343.06,-45.52 347.92,-36.1 338.25,-40.43 343.06,-45.52"/>
</g>
<!-- 11&#45;&gt;0 -->
<g id="edge2" class="edge">
<title>11&#45;&gt;0</title>
<path fill="none" stroke="grey" stroke-width="2" d="M553.24,-287.79C550.49,-245.8 537.96,-136.78 481,-72 460.62,-48.83 428.02,-35.13 402.72,-27.49"/>
<polygon fill="grey" stroke="grey" stroke-width="2" points="403.65,-24.11 393.08,-24.76 401.75,-30.85 403.65,-24.11"/>
</g>
</g>
</svg>
